<svg width="693" height="693" xmlns="http://www.w3.org/2000/svg" xmlns:xlink="http://www.w3.org/1999/xlink" overflow="hidden"><defs><clipPath id="clip0"><rect x="0" y="0" width="693" height="693"/></clipPath></defs><g clip-path="url(#clip0)"><path d="M533.466 355.884C546.459 408.581 492.319 460.556 438.9 438.9 394.144 423.019 376.819 371.044 407.859 326.288 477.881 233.166 426.628 86.625 310.406 36.0938 363.103 135.712 282.253 227.391 236.053 265.65 189.853 303.909 158.812 343.612 149.428 366.712 102.506 480.769 172.528 589.772 220.172 615.759 198.516 566.672 178.303 472.828 263.484 384.759 263.484 384.759 238.941 478.603 292.359 543.572 345.778 608.541 345.056 656.906 345.056 656.906 428.072 656.906 506.756 607.097 539.963 525.525 565.228 477.159 567.394 400.641 533.466 355.884" fill="#FC3649"/></g></svg>