<svg width="318" height="318" xmlns="http://www.w3.org/2000/svg" xmlns:xlink="http://www.w3.org/1999/xlink" overflow="hidden"><defs><clipPath id="clip0"><rect x="0" y="0" width="318" height="318"/></clipPath></defs><g clip-path="url(#clip0)"><path d="M244.794 163.306C250.756 187.487 225.912 211.337 201.4 201.4 180.862 194.112 172.913 170.263 187.156 149.725 219.287 106.994 195.769 39.75 142.438 16.5625 166.619 62.275 129.519 104.344 108.319 121.9 87.1187 139.456 72.875 157.675 68.5688 168.275 47.0375 220.612 79.1687 270.631 101.031 282.556 91.0938 260.031 81.8188 216.969 120.906 176.556 120.906 176.556 109.644 219.619 134.156 249.431 158.669 279.244 158.337 301.438 158.337 301.438 196.431 301.438 232.537 278.581 247.775 241.15 259.369 218.956 260.362 183.844 244.794 163.306" fill="#FC3649"/></g></svg>